<?xml version="1.0" encoding="UTF-8"?>
<svg xmlns="http://www.w3.org/2000/svg" width="96" height="96" viewBox="0 0 96 96">
  <path fill="#7023DD" d="M48,8c22.09,0 40,17.91 40,40s-17.91,40 -40,40S8,70.09 8,48 25.91,8 48,8z"/>
  <path fill="#6D58FC" fill-opacity="0.35" d="M48,8c22.09,0 40,17.91 40,40c0,8.84 -2.86,17.02 -7.7,23.68L28.2,24.2C34.98,14.58 40.9,8 48,8z"/>
  <path fill="#FFFFFF" d="M30,34c0,-4.42 5.37,-7.2 9.7,-5.1L48,32l8.3,-3.1c4.33,-2.1 9.7,0.68 9.7,5.1v34c0,3.2 -3.6,5.1 -6.3,3.3L48,66l-11.7,5.3c-2.7,1.8 -6.3,-0.1 -6.3,-3.3V34z"/>
  <path fill="#FFFFFF" fill-opacity="0.88" d="M48,32v34l11.7,5.3c2.7,1.8 6.3,-0.1 6.3,-3.3V34c0,-4.42 -5.37,-7.2 -9.7,-5.1L48,32z"/>
  <path fill="#6D58FC" d="M46,32h4v38h-4z"/>
  <path fill="none" stroke="#32C5FF" stroke-width="3.5" stroke-linecap="round" stroke-linejoin="round" d="M34,58 L44,48 L52,54 L64,40"/>
  <path fill="#F73757" d="M64,40m-4,0a4,4 0,1,1 -8,0a4,4 0,1,1 8,0"/>
  <path fill="none" stroke="#F73757" stroke-width="3" stroke-linecap="round" stroke-linejoin="round" d="M38,62 L42,66 L50,56"/>
</svg>
