<?xml version="1.0" encoding="UTF-8"?>
<svg xmlns="http://www.w3.org/2000/svg" width="108" height="108" viewBox="0 0 108 108">
  <path fill="#FFFFFF" d="M33,38c0,-4.97 6.03,-8.09 10.9,-5.74L54,36l10.1,-3.74c4.87,-2.35 10.9,0.77 10.9,5.74v38.25c0,3.6 -4.05,5.74 -7.09,3.71L54,74l-13.91,6.26c-3.04,2.03 -7.09,-0.11 -7.09,-3.71V38z"/>
  <path fill="#FFFFFF" fill-opacity="0.9" d="M54,36v38l13.91,6.26c3.04,2.03 7.09,-0.11 7.09,-3.71V38c0,-4.97 -6.03,-8.09 -10.9,-5.74L54,36z"/>
  <path fill="#6D58FC" d="M51.5,36h5v41h-5z"/>
  <path fill="none" stroke="#32C5FF" stroke-width="4" stroke-linecap="round" stroke-linejoin="round" d="M38,64 L50,52 L60,58 L74,42"/>
  <path fill="#F73757" d="M74,42m-4.5,0a4.5,4.5 0,1,1 -9,0a4.5,4.5 0,1,1 9,0"/>
  <path fill="none" stroke="#F73757" stroke-width="3.5" stroke-linecap="round" stroke-linejoin="round" d="M42,68 L47,73 L57,60"/>
</svg>
