<?xml version="1.0" encoding="UTF-8"?>
<svg xmlns="http://www.w3.org/2000/svg" width="1024" height="500" viewBox="0 0 1024 500">
  <defs>
    <linearGradient id="bg" x1="0%" y1="0%" x2="100%" y2="100%">
      <stop offset="0%" stop-color="#7023DD"/>
      <stop offset="45%" stop-color="#5B3AE8"/>
      <stop offset="100%" stop-color="#32C5FF"/>
    </linearGradient>
    <linearGradient id="glow" x1="0%" y1="50%" x2="100%" y2="50%">
      <stop offset="0%" stop-color="#6D58FC" stop-opacity="0"/>
      <stop offset="50%" stop-color="#6D58FC" stop-opacity="0.35"/>
      <stop offset="100%" stop-color="#32C5FF" stop-opacity="0.2"/>
    </linearGradient>
    <filter id="soft" x="-20%" y="-20%" width="140%" height="140%">
      <feGaussianBlur stdDeviation="8" result="b"/>
      <feMerge><feMergeNode in="b"/><feMergeNode in="SourceGraphic"/></feMerge>
    </filter>
  </defs>
  <rect width="1024" height="500" fill="url(#bg)"/>
  <rect width="1024" height="500" fill="url(#glow)"/>
  <circle cx="880" cy="80" r="140" fill="#6D58FC" fill-opacity="0.18"/>
  <circle cx="60" cy="420" r="100" fill="#32C5FF" fill-opacity="0.12"/>
  <circle cx="720" cy="400" r="60" fill="#F73757" fill-opacity="0.15"/>
  <path d="M0 380 Q 200 320 400 400 T 1024 360 L 1024 500 L 0 500 Z" fill="#FFFFFF" fill-opacity="0.06"/>
  <g transform="translate(108, 122) scale(2.55)">
    <path fill="#7023DD" d="M48,8c22.09,0 40,17.91 40,40s-17.91,40 -40,40S8,70.09 8,48 25.91,8 48,8z"/>
    <path fill="#6D58FC" fill-opacity="0.35" d="M48,8c22.09,0 40,17.91 40,40c0,8.84 -2.86,17.02 -7.7,23.68L28.2,24.2C34.98,14.58 40.9,8 48,8z"/>
    <path fill="#FFFFFF" d="M30,34c0,-4.42 5.37,-7.2 9.7,-5.1L48,32l8.3,-3.1c4.33,-2.1 9.7,0.68 9.7,5.1v34c0,3.2 -3.6,5.1 -6.3,3.3L48,66l-11.7,5.3c-2.7,1.8 -6.3,-0.1 -6.3,-3.3V34z"/>
    <path fill="#FFFFFF" fill-opacity="0.88" d="M48,32v34l11.7,5.3c2.7,1.8 6.3,-0.1 6.3,-3.3V34c0,-4.42 -5.37,-7.2 -9.7,-5.1L48,32z"/>
    <path fill="#6D58FC" d="M46,32h4v38h-4z"/>
    <path fill="none" stroke="#32C5FF" stroke-width="3.5" stroke-linecap="round" stroke-linejoin="round" d="M34,58 L44,48 L52,54 L64,40"/>
    <path fill="#F73757" d="M64,40m-4,0a4,4 0,1,1 -8,0a4,4 0,1,1 8,0"/>
    <path fill="none" stroke="#F73757" stroke-width="3" stroke-linecap="round" stroke-linejoin="round" d="M38,62 L42,66 L50,56"/>
  </g>
  <rect x="108" y="122" width="245" height="245" rx="122" fill="none" stroke="#FFFFFF" stroke-opacity="0.25" stroke-width="2"/>
  <text x="400" y="218" fill="#FFFFFF" font-family="Segoe UI, Roboto, Helvetica, Arial, sans-serif" font-size="92" font-weight="700" letter-spacing="4">KTS</text>
  <text x="400" y="278" fill="#FFFFFF" fill-opacity="0.92" font-family="Segoe UI, Roboto, Helvetica, Arial, sans-serif" font-size="34" font-weight="600">Koçluk Takip Sistemi</text>
  <text x="400" y="328" fill="#E8F7FF" fill-opacity="0.85" font-family="Segoe UI, Roboto, Helvetica, Arial, sans-serif" font-size="22" font-weight="400">Eğitim ve koçluk süreçlerini tek yerden takip edin</text>
  <rect x="400" y="352" width="120" height="4" rx="2" fill="#32C5FF"/>
  <rect x="528" y="352" width="48" height="4" rx="2" fill="#F73757" fill-opacity="0.9"/>
</svg>
